<svg width="203" height="208" viewBox="0 0 203 208" fill="none" xmlns="http://www.w3.org/2000/svg">
<path d="M44.4781 79.0586C37.6313 69.896 25.1001 67.6847 18.8731 72.3379C12.646 76.991 11.2156 89.6352 18.0624 98.7978C24.3999 107.279 35.882 109.592 42.2062 106.414C42.1858 106.514 42.1845 106.616 42.2025 106.716L42.5591 108.478C42.5863 108.613 42.6473 108.738 42.7365 108.842C42.8257 108.946 42.94 109.026 43.0686 109.073C43.1972 109.121 43.3358 109.135 43.4713 109.114C43.6067 109.092 43.7345 109.037 43.8426 108.953L46.8619 106.594C46.9699 106.509 47.0546 106.399 47.1079 106.273C47.1611 106.146 47.1812 106.008 47.1663 105.872C47.1513 105.736 47.1017 105.606 47.0222 105.494C46.9428 105.382 46.8361 105.293 46.7123 105.234L45.0881 104.461C45.031 104.436 44.971 104.417 44.9094 104.405C49.7842 99.2515 50.8294 87.5582 44.4781 79.0586Z" fill="#656566"/>
<path d="M29.5016 75.5992C32.8508 76.1312 35.868 77.9288 37.9302 80.6209C39.9925 83.313 40.9425 86.6941 40.5841 90.0663C40.5105 90.8388 41.7174 90.8337 41.7905 90.0663C42.1358 86.4316 41.0941 82.8008 38.8745 79.9019C36.6548 77.003 33.4213 75.0505 29.8223 74.4359C29.0629 74.3068 28.7366 75.4692 29.5016 75.5992Z" fill="white"/>
<path d="M201.794 90.5304C205.478 79.7018 200.215 68.1166 192.856 65.6128C185.496 63.109 174.26 69.0804 170.575 79.9089C167.165 89.9321 171.751 100.71 177.949 104.128C177.855 104.167 177.77 104.224 177.698 104.295L176.446 105.586C176.351 105.685 176.282 105.806 176.247 105.938C176.211 106.071 176.21 106.21 176.244 106.343C176.277 106.476 176.344 106.598 176.438 106.698C176.532 106.798 176.65 106.872 176.781 106.913L180.434 108.069C180.564 108.111 180.704 108.118 180.838 108.09C180.972 108.063 181.097 108.001 181.201 107.912C181.305 107.823 181.384 107.708 181.432 107.579C181.479 107.451 181.492 107.312 181.471 107.177L181.189 105.4C181.178 105.339 181.16 105.278 181.135 105.221C188.142 106.327 198.376 100.575 201.794 90.5304Z" fill="#656566"/>
<path d="M196.177 76.2228C197.632 79.2858 197.856 82.7907 196.802 86.014C195.749 89.2373 193.497 91.9329 190.514 93.5446C189.835 93.9207 190.522 94.9133 191.196 94.5395C194.389 92.7686 196.794 89.8561 197.929 86.386C199.065 82.916 198.846 79.145 197.318 75.8293C196.995 75.13 195.851 75.5183 196.177 76.2228Z" fill="white"/>
<path d="M115.242 19.9787C114.741 8.55149 105.629 -0.330726 97.8634 0.00945326C90.0973 0.349633 81.7969 9.99455 82.2974 21.4218C82.7608 31.999 90.9483 40.3747 97.964 41.3089C97.8913 41.3794 97.8327 41.4631 97.7914 41.5556L97.0938 43.2132C97.0406 43.3396 97.0206 43.4775 97.0357 43.6137C97.0507 43.75 97.1004 43.8801 97.1799 43.9918C97.2595 44.1035 97.3662 44.193 97.49 44.2518C97.6139 44.3106 97.7507 44.3368 97.8875 44.3278L101.711 44.0781C101.848 44.0692 101.98 44.0254 102.095 43.951C102.21 43.8766 102.304 43.7739 102.369 43.6529C102.433 43.5318 102.465 43.3963 102.463 43.2592C102.46 43.1222 102.422 42.9881 102.353 42.8697L101.445 41.3169C101.413 41.2635 101.374 41.2142 101.329 41.1699C108.26 39.6549 115.706 30.579 115.242 19.9787Z" fill="#40985E"/>
<path d="M104.812 8.68848C107.28 11.0137 108.762 14.1978 108.951 17.5838C109.14 20.9697 108.021 24.299 105.827 26.8843C105.331 27.4813 106.331 28.1565 106.824 27.5635C109.155 24.7538 110.338 21.1666 110.136 17.5211C109.933 13.8757 108.36 10.4416 105.732 7.90754C105.177 7.37333 104.252 8.1503 104.812 8.68848Z" fill="white"/>
<path d="M115.87 119.325C124.921 119.325 132.258 111.987 132.258 102.936C132.258 93.885 124.921 86.5475 115.87 86.5475C106.819 86.5475 99.4811 93.885 99.4811 102.936C99.4811 111.987 106.819 119.325 115.87 119.325Z" fill="#40985E"/>
<path d="M115.125 206.851H110.605C110.077 206.85 109.572 206.64 109.198 206.267C108.825 205.894 108.615 205.388 108.615 204.861V167.191C108.615 166.663 108.825 166.157 109.198 165.784C109.572 165.411 110.077 165.201 110.605 165.201H115.125C115.652 165.201 116.158 165.411 116.532 165.784C116.905 166.157 117.115 166.663 117.115 167.191V204.861C117.115 205.388 116.905 205.894 116.532 206.267C116.158 206.64 115.653 206.85 115.125 206.851Z" fill="#40985E"/>
<path d="M129.602 206.851H125.082C124.555 206.85 124.049 206.64 123.676 206.267C123.303 205.894 123.093 205.388 123.092 204.861V167.191C123.093 166.663 123.303 166.157 123.676 165.784C124.049 165.411 124.555 165.201 125.082 165.201H129.602C130.13 165.201 130.636 165.411 131.009 165.784C131.382 166.157 131.592 166.663 131.593 167.191V204.861C131.592 205.388 131.382 205.894 131.009 206.267C130.636 206.64 130.13 206.85 129.602 206.851Z" fill="#40985E"/>
<path d="M103.825 134.793L101.886 138.875C101.659 139.352 101.252 139.719 100.755 139.896C100.258 140.073 99.711 140.045 99.2341 139.819L65.2067 123.66C64.7303 123.433 64.3634 123.027 64.1864 122.529C64.0094 122.032 64.0368 121.485 64.2626 121.008L66.2014 116.926C66.4283 116.449 66.835 116.082 67.3321 115.905C67.8293 115.728 68.3763 115.756 68.8533 115.981L102.881 132.141C103.357 132.368 103.724 132.774 103.901 133.271C104.078 133.769 104.051 134.316 103.825 134.793Z" fill="#40985E"/>
<path d="M108.951 136.981C109.047 137.445 108.973 137.928 108.743 138.341L106.559 142.298C106.303 142.76 105.875 143.101 105.368 143.247C104.861 143.394 104.317 143.333 103.854 143.079L87.864 136.029C87.4023 135.774 87.0609 135.346 86.9146 134.839C86.7684 134.332 86.8292 133.787 87.0838 133.325L91.0907 125.829C91.2171 125.6 91.3872 125.398 91.5915 125.235C91.7958 125.072 92.0302 124.951 92.2813 124.879C92.5324 124.806 92.7954 124.784 93.0552 124.813C93.3149 124.842 93.5664 124.922 93.7952 125.049L108.156 134.542C108.622 134.799 108.766 136.317 108.913 136.827C108.928 136.878 108.941 136.93 108.951 136.981Z" fill="#07180D"/>
<path d="M128.611 132.141L162.639 115.981C163.115 115.756 163.663 115.728 164.16 115.905C164.657 116.082 165.063 116.449 165.29 116.926L167.229 121.008C167.455 121.485 167.482 122.032 167.305 122.529C167.128 123.027 166.761 123.433 166.285 123.66L132.258 139.819C131.781 140.045 131.234 140.073 130.737 139.896C130.239 139.719 129.833 139.352 129.606 138.875L127.667 134.793C127.441 134.316 127.414 133.769 127.591 133.271C127.768 132.774 128.135 132.368 128.611 132.141Z" fill="#40985E"/>
<path d="M122.578 136.827C122.726 136.317 122.87 134.799 123.335 134.542L137.697 125.049C137.925 124.922 138.177 124.842 138.437 124.813C138.696 124.784 138.959 124.806 139.211 124.879C139.462 124.951 139.696 125.072 139.9 125.235C140.105 125.398 140.275 125.6 140.401 125.829L144.408 133.325C144.663 133.787 144.724 134.332 144.577 134.839C144.431 135.346 144.09 135.774 143.628 136.029L127.638 143.079C127.175 143.333 126.631 143.394 126.124 143.247C125.617 143.101 125.189 142.76 124.933 142.298L122.749 138.341C122.518 137.928 122.445 137.445 122.541 136.981C122.551 136.93 122.564 136.878 122.578 136.827Z" fill="#07180D"/>
<path d="M113.688 109.01L113.671 108.398C114.81 108.366 115.815 108.295 116.57 107.743C116.784 107.578 116.96 107.369 117.085 107.129C117.211 106.89 117.284 106.627 117.299 106.357C117.312 106.192 117.287 106.026 117.226 105.872C117.165 105.718 117.069 105.581 116.946 105.47C116.445 105.047 115.639 105.184 115.051 105.454L114.544 105.686L115.516 98.5845L116.123 98.6676L115.296 104.708C115.635 104.583 115.999 104.544 116.356 104.595C116.713 104.647 117.052 104.787 117.341 105.003C117.536 105.172 117.688 105.385 117.787 105.624C117.886 105.862 117.928 106.12 117.911 106.378C117.893 106.741 117.796 107.095 117.627 107.417C117.457 107.738 117.22 108.018 116.931 108.238C115.961 108.947 114.701 108.982 113.688 109.01Z" fill="#07180D"/>
<path d="M122.422 99.1885H119.124V99.8009H122.422V99.1885Z" fill="#07180D"/>
<path d="M112.01 99.1885H108.712V99.8009H112.01V99.1885Z" fill="#07180D"/>
<path d="M121.52 126.985H122.18C122.445 126.985 122.706 126.933 122.951 126.832C123.195 126.732 123.417 126.583 123.604 126.397C123.791 126.21 123.939 125.988 124.04 125.744C124.142 125.5 124.194 125.238 124.194 124.974C124.194 124.71 124.142 124.448 124.04 124.204C123.939 123.96 123.791 123.738 123.604 123.551C123.417 123.365 123.195 123.216 122.951 123.116C122.706 123.015 122.445 122.963 122.18 122.963H109.312C108.779 122.964 108.268 123.176 107.891 123.553C107.515 123.93 107.303 124.441 107.303 124.974C107.303 125.507 107.515 126.018 107.891 126.395C108.268 126.772 108.779 126.984 109.312 126.985H110.52C100.193 131.683 93.5658 149.04 93.5658 159.856C93.5658 172.457 102.66 176.521 116.02 176.521C129.381 176.521 141.949 172.457 141.949 159.856C141.949 149.04 132.614 131.683 121.52 126.985Z" fill="#07180D"/>
<path d="M115.195 93.5765C114.795 92.363 113.355 91.9905 112.246 92.4483C110.946 92.9851 110.209 94.315 108.953 94.9436C106.695 96.0743 103.699 95.4671 101.977 93.6548C100.094 91.6729 99.723 88.5801 100.671 86.0779C101.651 83.4901 104.082 81.617 106.685 80.8563C110.143 79.8454 113.854 80.7731 116.85 82.6376C116.93 82.6832 117.019 82.71 117.111 82.716C117.203 82.7221 117.295 82.7072 117.381 82.6724C117.466 82.6377 117.542 82.5841 117.604 82.5156C117.665 82.4472 117.711 82.3656 117.736 82.2771C118.56 79.1296 122.114 78.2135 124.969 78.5512C127.788 78.9393 130.469 80.0093 132.78 81.6684C137.245 84.7829 140.392 89.856 140.833 95.3175C141.044 98.1267 140.64 100.948 139.647 103.584C138.654 106.221 137.097 108.608 135.084 110.58C134.078 111.551 132.905 112.315 131.879 113.261C130.945 114.123 130.023 115.257 130.042 116.599C130.085 119.684 134.145 120.535 136.548 120.628C139.531 120.761 142.46 119.804 144.788 117.934C147.116 116.065 148.683 113.411 149.197 110.47C149.325 109.754 149.391 109.028 149.395 108.301C149.399 107.525 148.192 107.524 148.189 108.301C148.166 111.233 147.012 114.043 144.968 116.146C143.917 117.2 142.667 118.033 141.289 118.597C139.912 119.161 138.436 119.445 136.947 119.43C135.029 119.421 129.832 118.511 131.574 115.477C132.255 114.291 133.477 113.483 134.53 112.657C135.626 111.796 136.621 110.814 137.497 109.729C139.259 107.552 140.559 105.038 141.315 102.341C142.071 99.6443 142.268 96.8212 141.893 94.0454C141.116 88.6051 137.817 83.6895 133.33 80.5851C129.057 77.6295 121.161 75.0155 117.426 80.1363C117.031 80.6844 116.741 81.3017 116.573 81.9564L117.459 81.5959C114.573 79.7995 111.132 78.8676 107.74 79.3874C106.28 79.6074 104.88 80.1231 103.626 80.9027C102.372 81.6824 101.29 82.7096 100.447 83.9217C99.6383 85.1407 99.1434 86.5405 99.006 87.9968C98.8687 89.4531 99.0932 90.9208 99.6597 92.2695C100.214 93.5614 101.129 94.6667 102.294 95.4535C103.46 96.2404 104.827 96.6756 106.232 96.7075C107.754 96.7686 109.252 96.3102 110.48 95.4075C111.167 94.8835 111.695 94.1417 112.438 93.6954C112.864 93.4399 113.822 93.2605 114.031 93.8972C114.273 94.6313 115.438 94.3169 115.195 93.5765Z" fill="#07180D"/>
<path d="M142.54 34.0193C145.533 34.2079 148.439 35.1032 151.02 36.6319C153.601 38.1605 155.782 40.279 157.386 42.8136C157.836 43.5322 158.422 44.3218 158.111 45.2062C158.003 45.5453 157.783 45.8377 157.487 46.0354C157.19 46.2331 156.836 46.3246 156.481 46.2948C155.564 46.1831 154.972 45.2857 154.859 44.4258C154.731 43.4503 155.419 42.6846 156.268 42.3221C158.345 41.4365 160.439 42.8052 162.131 43.8975C165.984 46.3864 170.223 48.6373 174.892 48.921C179.212 49.1834 183.845 47.4894 186.248 43.743C186.668 43.0875 185.624 42.4818 185.206 43.134C182.823 46.8496 178.005 48.1841 173.816 47.6098C171.32 47.2159 168.909 46.3975 166.689 45.1901C165.538 44.5926 164.421 43.9302 163.327 43.2339C162.286 42.5075 161.183 41.8749 160.03 41.3435C158.107 40.5536 155.561 40.6153 154.218 42.4339C152.965 44.1306 153.933 46.9552 156.029 47.4322C158.015 47.8842 159.755 46.0162 159.347 44.0631C159.137 43.0639 158.385 42.0862 157.803 41.2696C156.053 38.8082 153.774 36.7707 151.132 35.3071C148.49 33.8435 145.554 32.9912 142.54 32.8129C141.763 32.7745 141.766 33.9811 142.54 34.0193Z" fill="#656566"/>
<path d="M43.8062 52.968C40.8127 52.7794 37.9065 51.8841 35.3259 50.3555C32.7452 48.8268 30.5635 46.7084 28.9597 44.1737C28.5102 43.4552 27.9234 42.6656 28.2346 41.7812C28.343 41.442 28.5632 41.1497 28.8593 40.952C29.1553 40.7543 29.5097 40.6628 29.8645 40.6926C30.7819 40.8042 31.3739 41.7017 31.4869 42.5616C31.6151 43.537 30.9269 44.3028 30.0773 44.6652C28.0011 45.5508 25.9065 44.1822 24.2153 43.0899C20.3618 40.6009 16.1233 38.3501 11.4539 38.0664C7.1337 37.804 2.5009 39.4979 0.0979218 43.2444C-0.322488 43.8999 0.721341 44.5055 1.13967 43.8533C3.52284 40.1377 8.34058 38.8033 12.5296 39.3776C15.0259 39.7715 17.4363 40.5899 19.6565 41.7972C20.8079 42.3948 21.9246 43.0571 23.0187 43.7534C24.0598 44.4799 25.1633 45.1125 26.3163 45.6438C28.2392 46.4337 30.7847 46.372 32.1279 44.5534C33.3809 42.8568 32.4125 40.0322 30.3167 39.5552C28.3305 39.1031 26.5905 40.9712 26.9993 42.9243C27.2084 43.9234 27.9607 44.9012 28.543 45.7178C30.2927 48.1792 32.5723 50.2167 35.2139 51.6803C37.8554 53.1438 40.7917 53.9961 43.8063 54.1745C44.5824 54.2128 44.5803 53.0063 43.8062 52.968Z" fill="#656566"/>
</svg>
